<svg fill="none" xmlns="http://www.w3.org/2000/svg" viewBox="0 0 12 12"><path opacity=".5" d="M1.173 12C.515 12 0 11.47 0 10.812c0-.316.114-.616.343-.831L4.305 6 .343 2.033A1.148 1.148 0 0 1 0 1.203C0 .53.515.029 1.173.029c.329 0 .586.114.815.329l3.99 3.98L9.999.345c.243-.244.5-.344.815-.344C11.47 0 12 .516 12 1.174c0 .33-.1.587-.358.845L7.666 6l3.962 3.967c.243.214.358.515.358.845 0 .658-.53 1.188-1.202 1.188-.329 0-.63-.114-.844-.344L5.98 7.676l-3.948 3.98c-.229.23-.53.344-.858.344Z" fill="#707579"/></svg>